<svg width="42" height="43" viewBox="0 0 42 43" fill="none" xmlns="http://www.w3.org/2000/svg">
<path fill-rule="evenodd" clip-rule="evenodd" d="M33.5813 21.5C31.5468 23.2974 28.678 24.4715 25.3077 24.4715C24.2369 24.4715 22.3838 23.9841 19.7973 22.7141C19.0515 22.3479 18.2905 21.9397 17.5233 21.5C18.2905 21.0603 19.0515 20.6521 19.7973 20.2859C22.3838 19.0159 24.2369 18.5285 25.3077 18.5285C28.678 18.5285 31.5468 19.7026 33.5813 21.5ZM36.3955 17.3688C33.4523 15.0462 29.5669 13.6341 25.3077 13.6341C21.7518 13.6341 17.1587 15.8325 12.8634 18.5279C12.653 18.3817 12.4436 18.2346 12.2353 18.0869C10.578 16.9121 9.03802 15.7321 7.72373 14.6829C9.03802 13.6337 10.578 12.4537 12.2353 11.2789C14.7055 9.52783 17.3346 7.86104 19.7973 6.65176C22.3838 5.38175 24.2369 4.89431 25.3077 4.89431C32.096 4.89431 36.8499 9.6577 36.8499 14.6829C36.8499 15.5958 36.693 16.5001 36.3955 17.3688ZM40.0489 21.5C41.2613 19.4629 41.9473 17.1436 41.9473 14.6829C41.9473 6.57377 34.4975 0 25.3077 0C18.9175 0 9.17737 7.09955 3.83595 11.4252C1.49584 13.3203 0 14.6829 0 14.6829C0 14.6829 1.49584 16.0456 3.83595 17.9407C5.15357 19.0077 6.73886 20.2436 8.4755 21.5C6.73886 22.7564 5.15357 23.9923 3.83595 25.0593C1.49584 26.9544 0 28.3171 0 28.3171C0 28.3171 1.49584 29.6797 3.83595 31.5748C9.17737 35.9004 18.9175 43 25.3077 43C34.4975 43 41.9473 36.4262 41.9473 28.3171C41.9473 25.8564 41.2613 23.5371 40.0489 21.5ZM36.3955 25.6312C33.4523 27.9538 29.5669 29.3659 25.3077 29.3659C21.7518 29.3659 17.1587 27.1675 12.8634 24.4721C12.653 24.6183 12.4436 24.7654 12.2353 24.9131C10.578 26.0879 9.03802 27.2679 7.72373 28.3171C9.03802 29.3663 10.578 30.5463 12.2353 31.7211C14.7055 33.4722 17.3346 35.139 19.7973 36.3482C22.3838 37.6182 24.2369 38.1057 25.3077 38.1057C32.096 38.1057 36.8499 33.3423 36.8499 28.3171C36.8499 27.4042 36.693 26.4999 36.3955 25.6312Z" fill="#E6E6E6"/>
</svg>
